<?xml version="1.0" encoding="utf-8"?>
<!-- Generator: Adobe Illustrator 23.1.0, SVG Export Plug-In . SVG Version: 6.00 Build 0)  -->
<svg version="1.1" id="Layer_1" xmlns="http://www.w3.org/2000/svg" xmlns:xlink="http://www.w3.org/1999/xlink" x="0px" y="0px"
	 viewBox="0 0 1920 1080" style="enable-background:new 0 0 1920 1080;" xml:space="preserve">
<style type="text/css">
	.st0{fill:#FFFFFF;}
	.st1{fill-rule:evenodd;clip-rule:evenodd;fill:#161616;}
	.st2{fill-rule:evenodd;clip-rule:evenodd;fill:#936D6D;}
	.st3{fill-rule:evenodd;clip-rule:evenodd;}
	.st4{fill-rule:evenodd;clip-rule:evenodd;fill:#A07F7F;}
	.st5{fill-rule:evenodd;clip-rule:evenodd;fill:none;stroke:#000000;stroke-width:48;stroke-miterlimit:10;}
	.st6{fill-rule:evenodd;clip-rule:evenodd;fill:none;}
	.st7{fill:none;}
	.st8{fill-rule:evenodd;clip-rule:evenodd;fill:#020202;}
	.st9{fill-rule:evenodd;clip-rule:evenodd;fill:#191414;}
	.st10{display:none;fill:#FFFFFF;}
	.st11{fill-rule:evenodd;clip-rule:evenodd;fill:#FFFFFF;}
</style>
<rect x="2022" y="540" class="st0" width="1920" height="540"/>
<polygon class="st1" points="55.5,-1823.5 196.5,-1899.5 196.5,-1696.5 55.5,-1696.5 "/>
<path class="st2" d="M122.56-1570l12.17,5.1c56.76,23.78,111.99-36.78,83.1-91.11L196.03-1697h-141L122.56-1570z"/>
<path class="st3" d="M-7.07-1833.97l121.57-65.53v203H-11.65c-8.2,0-14.85-6.65-14.85-14.85v-90.07
	C-26.5-1815.02-19.04-1827.52-7.07-1833.97z"/>
<polygon class="st3" points="-26,-1329 115,-1253 115,-1456 -26,-1456 "/>
<path class="st4" d="M52.72-1564.9L52.72-1564.9c56.76,23.78,111.99-36.78,83.1-91.11L114.03-1697H-11.3
	c-7.1,0-11.65,7.56-8.31,13.83l53.98,101.52C38.37-1574.11,44.86-1568.2,52.72-1564.9z"/>
<g>
	<path class="st5" d="M694.5-485.5c0,119.29,96.71,216,216,216s343-216,343-216s-223.71-216-343-216S694.5-604.79,694.5-485.5z"/>
	<path class="st5" d="M1596.5-701.5c-119.29,0-343,216-343,216s223.71,216,343,216s216-96.71,216-216S1715.79-701.5,1596.5-701.5z"
		/>
</g>
<path class="st6" d="M1474.5-1977.5c-46.81,0-89.45,17.87-121.46,47.16c-34.63,31.68-144.81,125.43-153.03,132.41
	c-8.21-7.12-120.18-104.22-157.1-136.01c-31.52-27.15-72.55-43.56-117.41-43.56c-99.41,0-180,80.59-180,180s80.59,180,180,180
	c46.81,0,89.45-17.87,121.46-47.16c34.63-31.68,144.81-125.43,153.03-132.41c8.21,7.12,120.18,104.22,157.1,136.01
	c31.52,27.15,72.55,43.56,117.41,43.56c99.41,0,180-80.59,180-180S1573.91-1977.5,1474.5-1977.5z"/>
<path class="st7" d="M202.38-2713c-61.87,0-117.37,60.92-155.13,116.5L0.69-2507L47-2417.87C84.77-2362.19,140.37-2301,202.38-2301
	c113.77,0,206-92.23,206-206C408.38-2620.77,316.15-2713,202.38-2713z M-201-2713c-113.77,0-206,92.23-206,206
	c0,113.77,92.23,206,206,206c61.87,0,117.37-60.92,155.13-116.5L0.69-2507l-46.31-89.13C-83.39-2651.81-139-2713-201-2713z"/>
<path class="st6" d="M47.25-2066.5c37.76-55.58,93.26-116.5,155.13-116.5c113.77,0,206,92.23,206,206c0,113.77-92.23,206-206,206
	c-62,0-117.61-61.19-155.38-116.87l-92.62-178.27C-83.39-2121.81-139-2183-201-2183c-113.77,0-206,92.23-206,206
	c0,113.77,92.23,206,206,206c61.87,0,117.37-60.92,155.13-116.5L47.25-2066.5z"/>
<g>
	<path class="st7" d="M-201-1643c-113.77,0-206,92.23-206,206c0,113.77,92.23,206,206,206c61.87,0,117.37-60.92,155.13-116.5
		L0.69-1437l-46.31-89.13C-83.39-1581.81-139-1643-201-1643z"/>
	<path class="st7" d="M202.38-1643c-61.87,0-117.37,60.92-155.13,116.5L0.69-1437L47-1347.87C84.77-1292.19,140.37-1231,202.38-1231
		c113.77,0,206-92.23,206-206C408.38-1550.77,316.15-1643,202.38-1643z"/>
</g>
<path class="st7" d="M827-1712c0,0-93-292,220-235c0,0,164,52,319,235s503,197,503,197s473-145,84-370s-292,456-561,495
	S827-1712,827-1712z"/>
<polygon class="st8" points="-1125.51,2408 -3666.51,2408 -3664,1544 -1730.49,1544 "/>
<polygon class="st9" points="-3664,1544 -4546,619 -4715,1294 -3667,2408 "/>
<polygon class="st8" points="-2081,1008.38 -3666.99,1008.38 -3665.34,439.52 -2479.32,439.52 "/>
<polygon class="st9" points="-3665.34,439.52 -4333.04,-169.5 -4444.31,274.92 -3667.31,1008.38 "/>
<polygon class="st8" points="-2923,-153.34 -3577.27,-153.34 -3576.42,-444.83 -3127.1,-444.83 "/>
<polygon class="st9" points="-3576.42,-444.83 -4076.98,-756.91 -4134,-529.18 -3577.43,-153.34 "/>
<path class="st7" d="M-836.24-1615.05"/>
<polygon class="st8" points="-3846.65,-994.41 -3580.37,-1348 -3305.35,-841 -3579.74,-841 "/>
<polygon class="st9" points="-3577,-841 -3577,-1348 -3847,-994 "/>
<g>
	<path d="M-84.51-509.34l-27.1,24.02H-185l-27.39-24.02v-37.06h42.48v18.6h42.92v-51.27H-185l-27.39-24.17v-88.04l27.39-24.17h73.39
		l27.1,24.02v35.74h-42.48v-17.29h-42.92v51.27h58.3l27.1,24.17V-509.34z"/>
	<path d="M69.15-485.31H26.67v-93.75h-48.19v93.75H-64v-230.13h42.48v93.75h48.19v-93.75h42.48V-485.31z"/>
	<path d="M200.55-485.31H89.66v-230.13h110.01v42.48h-67.53v51.27h58.15v42.63h-58.15v51.27h68.41V-485.31z"/>
	<path d="M349.82-509.34l-27.25,24.02H221.06v-230.13h101.51l27.25,24.17v70.75l-16.41,19.92l16.41,20.36V-509.34z M263.54-621.69
		h43.65v-51.27h-43.65V-621.69z M263.54-527.79h43.65v-51.27h-43.65V-527.79z"/>
	<path d="M475.65-485.31H370.33v-230.13h42.63v187.65h62.7V-485.31z"/>
</g>
<path d="M-617-161.31h-38.28v-93.75h-43.43v93.75H-737v-230.13h38.28v93.75h43.43v-93.75H-617V-161.31z"/>
<path d="M-576-181.84v-40.56 M-576-275.71v-95.08 M-456-331.68v-39.19"/>
<path d="M-552.6-391.44l-23.4,20.65 M-456-370.87l-23.21-20.57"/>
<polygon points="-537.72,-255.06 -537.72,-161.31 -552.6,-161.31 -576,-181.84 -576,-275.71 -552.6,-255.06 "/>
<polygon points="-456,-370.87 -456,-276.99 -479.21,-297.69 -494.28,-297.69 -494.28,-391.44 -479.21,-391.44 "/>
<polygon points="-456,-276.99 -456,-181.89 -479.21,-161.31 -494.28,-161.31 -494.28,-255.06 -552.6,-255.06 -576,-275.71 
	-576,-370.79 -552.6,-391.44 -537.72,-391.44 -537.72,-297.69 -479.21,-297.69 "/>
<rect x="2022" class="st0" width="1920" height="540"/>
<rect x="3100.8" y="477.26" width="37.79" height="44.39"/>
<polygon points="3942,0 3942,540 3230.16,540 3230.16,440.48 3193.25,440.48 3193.25,540 3161.35,540 3161.29,539.92 3175.5,522.67 
	3175.5,461.41 3151.91,440.48 3064.02,440.48 3064.02,540 3055.31,540 3055.31,440 3037.13,440 3036.69,476.8 2978.69,476.8 
	2978.69,521.82 3028.04,521.82 3028.04,540 2910.72,540 2910.72,458.29 2890.62,440.48 2877.58,440.48 2877.58,521.65 
	2839.97,521.65 2839.97,440.48 2827.08,440.48 2806.82,458.36 2806.82,540 2787.39,540 2766.81,521.65 2716.34,521.65 
	2716.34,477.26 2753.5,477.26 2753.5,492.23 2790.28,492.23 2790.28,461.28 2766.81,440.48 2703.27,440.48 2679.56,461.41 
	2679.56,537.63 2682.24,540 2022,540 2022,0 "/>
<rect y="540" class="st10" width="1920" height="540"/>
<path d="M2787.39,540h-105.15l21.03,18.56h50.23v44.39h-37.16v-16.11h-36.78v32.09l23.71,20.8h63.54l23.47-20.8v-76.35L2787.39,540z
	"/>
<polygon class="st0" points="2753.5,492.23 2753.5,477.26 2716.34,477.26 2716.34,521.65 2766.81,521.65 2787.39,540 2682.24,540 
	2679.56,537.63 2679.56,461.41 2703.27,440.48 2766.81,440.48 2790.28,461.28 2790.28,492.23 "/>
<path class="st7" d="M2806.82,621.96v-35.12 M2806.82,540.68V540"/>
<g>
	<polygon points="2839.97,558.56 2839.97,639.73 2827.08,639.73 2806.82,621.96 2806.82,540.68 2827.08,558.56 	"/>
	<polygon class="st0" points="2910.72,458.29 2910.72,539.58 2890.62,521.65 2877.58,521.65 2877.58,440.48 2890.62,440.48 	"/>
	<polygon class="st0" points="2910.72,539.58 2910.72,540 2806.82,540 2806.82,458.36 2827.08,440.48 2839.97,440.48 
		2839.97,521.65 2890.62,521.65 	"/>
	<polygon points="2910.72,540 2910.72,621.91 2890.62,639.73 2877.58,639.73 2877.58,558.56 2827.08,558.56 2806.82,540.68 
		2806.82,540 	"/>
</g>
<path d="M3161.35,540h-97.33v99.73h87.89l23.59-20.8v-61.39L3161.35,540z M3138.59,602.95h-37.79v-44.39h37.79V602.95z"/>
<path class="st0" d="M3175.5,461.41l-23.59-20.93h-87.89V540h97.33l-0.06-0.08l14.21-17.25V461.41z M3138.59,521.65h-37.79v-44.39
	h37.79V521.65z"/>
<path d="M3230.16,602.95V540h-36.91v99.73h91.19v-36.78H3230.16z"/>
<rect x="3193.25" y="440.48" class="st0" width="36.91" height="99.52"/>
<polygon class="st11" points="3055.31,440 3055.31,540 3028.04,540 3028.04,521.82 2978.69,521.82 2978.69,476.8 3036.69,476.8 
	3037.13,440 "/>
<polygon class="st3" points="3055.31,540 3055.31,640 3037.13,640 3037.13,603.64 2978.25,603.64 2978.25,558.61 3028.04,558.61 
	3028.04,540 "/>
<g>
	<path class="st0" d="M826.76,451.85c-0.08,9.5-4.79,14.37-14.13,14.61h-38.76c-9.82,0-14.73,3.26-14.73,9.78
		c0,6.2,4.95,9.3,14.85,9.3h9.42c28.9,0.48,43.27,13.36,43.11,38.64c-0.08,25.6-14.45,38.48-43.11,38.64l-39.12-0.12
		c-9.26,0.08-13.97-4.35-14.13-13.28c0.16-10.06,4.83-15.13,14.01-15.21h39c9.58,0,14.45-3.26,14.61-9.78
		c0-6.44-4.75-9.7-14.25-9.78h-9.42c-29.14,0.16-43.71-12.84-43.71-39c-0.08-25.44,14.33-38.16,43.23-38.16h38.64
		C821.93,437.49,826.76,442.28,826.76,451.85z"/>
	<path class="st0" d="M865.27,563.06c-9.5,0-14.25-4.91-14.25-14.73V412.98c0-9.58,4.83-14.37,14.49-14.37
		c9.66,0,14.49,4.91,14.49,14.73v24.15h34.05c28.98,0,43.47,14.81,43.47,44.43v66.65c0,9.66-4.83,14.49-14.49,14.49
		c-9.66,0-14.49-4.91-14.49-14.73v-67.02c0-9.9-4.91-14.85-14.73-14.85h-33.81v81.87C880.01,558.15,875.1,563.06,865.27,563.06z"/>
	<path class="st0" d="M1088.17,548.81c0,9.5-4.83,14.25-14.49,14.25h-48.54c-28.98,0-43.47-14.81-43.47-44.44v-66.65
		c0-9.66,4.83-14.49,14.49-14.49h76.67c10.14-0.08,15.21,4.71,15.21,14.37c-0.16,9.5-5.11,14.29-14.85,14.37h-62.55v19.32
		l43.35-0.24c9.82,0.16,14.73,5.15,14.73,14.97c0.08,9.42-4.71,14.13-14.37,14.13l-43.71,0.12v4.83c0,9.82,4.91,14.73,14.73,14.73
		l48.54,0.12C1083.42,534.2,1088.17,539.08,1088.17,548.81z"/>
	<path class="st0" d="M1126.57,563.06c-9.5,0-14.25-4.91-14.25-14.73V412.98c0-9.58,4.83-14.37,14.49-14.37s14.49,4.91,14.49,14.73
		v24.15h34.05c28.98,0,43.47,14.81,43.47,44.43v37.67c0,28.98-14.57,43.47-43.71,43.47H1126.57z M1175.11,533.96
		c9.82,0,14.73-4.67,14.73-14.01v-38.64c0-9.9-4.91-14.85-14.73-14.85h-33.81v67.5H1175.11z"/>
	<path class="st0" d="M1257.22,398.36c9.82,0,14.73,4.91,14.73,14.73v120.5c9.74,0,14.57,4.71,14.49,14.13
		c0,9.82-4.83,14.77-14.49,14.85l-14.49,0.24c-9.66-0.08-14.49-4.95-14.49-14.61V413.1
		C1242.97,403.28,1247.72,398.36,1257.22,398.36z"/>
</g>
</svg>
